# xmcd
#
# Track frame offsets:
#	150
#	25688
#	44309
#	63244
#	90285
#	134023
#	161111
#	183170
#	199699
#	249273
#
# Disc length: 3568 seconds
#
# Revision: 0
# Processed by: cddbd v1.5.2PL0 Copyright (c) Steve Scherf et al.
# Submitted via: EasyCDDAExtractor 10.0.5.1
#
DISCID=7a0dee0a
DTITLE=Marnie Jones - Viajes
DYEAR=1995
DGENRE=Meditative
TTITLE0=Volando a casa
TTITLE1=El misterio de Zemal
TTITLE2=Sueña Lilly
TTITLE3=Delicadeza pupura
TTITLE4=Cuna cosmica
TTITLE5=Catarata
TTITLE6=El jardín de Mary
TTITLE7=Ritmo del corazón
TTITLE8=Visita intima
TTITLE9=Ode to Tajmoo
EXTD=
EXTT0=
EXTT1=
EXTT2=
EXTT3=
EXTT4=
EXTT5=
EXTT6=
EXTT7=
EXTT8=
EXTT9=
PLAYORDER=
